# xmcd CD database file
#
# Track frame offsets:
#	150
#	3774
#	25409
#	45061
#	63981
#	80660
#	103108
#	126040
#	141222
#	147738
#	163079
#	178241
#	193619
#	211598
#	237265
#
# Disc length: 3584 seconds
#
# Revision: 8
# Processed by: cddbd v1.5.1PL2 Copyright (c) Steve Scherf et al.
# Submitted via: jetAudio 5
#
DISCID=cc0dfe0f
DTITLE=Musiq Soulchild - Aijuswanaseing
DYEAR=2000
DGENRE=R&B
TTITLE0=Scratch Introlude
TTITLE1=Girl Next Door (featuring Ayana of Aaries)
TTITLE2=You and Me
TTITLE3=Just Friends (Sunny)
TTITLE4=Mary Go Round
TTITLE5=143
TTITLE6=Love
TTITLE7=My Girl
TTITLE8=Musiq Soulchild (Interlude)
TTITLE9=Seventeen
TTITLE10=L' Is Gone
TTITLE11=Speechless
TTITLE12=Poparatzi
TTITLE13=Settle For My Love (Intermission featuring Aaries)
TTITLE14=You Be Alright
EXTD=YEAR: 2000  ID3G:  14
EXTT0=
EXTT1=
EXTT2=
EXTT3=
EXTT4=
EXTT5=
EXTT6=
EXTT7=
EXTT8=
EXTT9=
EXTT10=
EXTT11=
EXTT12=
EXTT13=
EXTT14=
PLAYORDER=
